<svg version="1.1" id="Layer_1" xmlns="http://www.w3.org/2000/svg" xmlns:xlink="http://www.w3.org/1999/xlink" x="0px" y="0px"
	 width="100%" viewBox="0 0 1024 1024" enable-background="new 0 0 1024 1024" xml:space="preserve">
<path fill="#000000" opacity="1.000000" stroke="none" 
	d="
M799.732910,535.500916 
	C816.444092,599.427734 786.680176,664.483276 728.560608,691.823547 
	C713.644653,698.840271 697.906921,702.751282 681.559021,704.320801 
	C679.290527,704.538635 677.449524,705.163147 675.722290,706.680908 
	C664.947998,716.148682 652.150818,720.074036 638.016174,720.074341 
	C528.866272,720.076477 419.716278,720.132751 310.566559,719.985779 
	C285.026855,719.951416 264.655579,702.858948 259.940582,678.118042 
	C259.136627,673.899475 259.026245,669.500122 259.024963,665.184204 
	C258.983856,526.205627 258.968140,387.227051 259.023438,248.248489 
	C259.033997,221.756546 272.443512,203.112396 295.962311,196.404434 
	C299.797150,195.310684 303.698120,194.615250 307.747162,194.616653 
	C419.896667,194.655350 532.046204,194.595108 644.195618,194.709961 
	C662.891846,194.729111 677.584778,202.822754 687.557495,218.770340 
	C692.036255,225.932480 694.362915,233.868256 694.360229,242.431274 
	C694.340088,306.588135 694.387634,370.745026 694.276855,434.901703 
	C694.269470,439.155060 695.440430,440.796417 699.838745,441.826172 
	C750.905029,453.781738 784.176758,484.948730 799.732910,535.500916 
M400.499969,692.706421 
	C414.663696,692.704468 428.827423,692.702942 442.991150,692.700256 
	C457.155426,692.697632 471.319672,692.691528 485.483948,692.691284 
	C499.481567,692.691040 513.479187,692.699036 527.476807,692.698242 
	C541.641052,692.697388 555.806702,692.810364 569.969238,692.651489 
	C583.828247,692.496033 597.730835,693.123840 611.592651,691.542175 
	C610.774353,690.168457 609.936157,689.666382 609.078308,689.200623 
	C592.788635,680.356628 578.442078,669.064514 566.761414,654.647217 
	C542.240601,624.381592 532.835327,589.572754 538.930481,551.386719 
	C545.907349,507.676392 569.826965,475.118683 608.767090,454.043182 
	C624.390381,445.587433 641.259827,440.638367 659.158813,439.513824 
	C667.653748,438.980164 667.645996,438.735168 667.646301,429.949432 
	C667.648376,368.626465 667.379211,307.301361 667.870483,245.982315 
	C667.970032,233.561783 657.688660,222.018646 644.242981,222.061249 
	C532.429688,222.415573 420.614838,222.246262 308.800446,222.279846 
	C295.866150,222.283722 286.313171,231.778992 286.311310,244.593887 
	C286.290649,386.069946 286.297302,527.545959 286.330261,669.022034 
	C286.333405,682.553345 296.446503,692.620361 310.015289,692.650879 
	C339.843384,692.717957 369.671722,692.693054 400.499969,692.706421 
M730.500854,519.955261 
	C724.718323,517.149963 720.603577,519.995544 716.927185,524.052368 
	C697.915955,545.030701 678.943054,566.043884 659.914246,587.006165 
	C658.276489,588.810303 657.221985,591.289368 654.596008,592.077637 
	C652.501099,591.464111 651.407166,589.689636 650.037720,588.282654 
	C641.209351,579.211975 632.485229,570.038391 623.575134,561.049072 
	C618.172668,555.598572 612.325928,555.448181 607.315063,560.248535 
	C602.056519,565.286133 601.869263,571.313477 607.074463,576.963989 
	C611.812256,582.107117 616.774353,587.043762 621.647217,592.062134 
	C629.652283,600.306335 637.548950,608.660278 645.711548,616.745605 
	C652.200562,623.173157 657.398804,623.010803 663.823669,616.724487 
	C664.537720,616.025757 665.264343,615.336121 665.932800,614.595032 
	C688.682556,589.373779 711.482544,564.197510 734.131287,538.885803 
	C739.966125,532.364868 738.712341,525.830078 730.500854,519.955261 
z"/>
<path fill="#000000" opacity="1.000000" stroke="none" 
	d="
M556.000000,424.299072 
	C518.016663,424.298584 480.533356,424.313538 443.050018,424.284485 
	C434.804749,424.278076 429.772491,421.388428 427.619293,415.656769 
	C424.356598,406.971680 429.814941,398.379639 439.051025,397.665619 
	C439.382782,397.639954 439.717010,397.638519 440.050079,397.638489 
	C498.190857,397.637299 556.331665,397.633820 614.472412,397.642670 
	C619.963745,397.643494 624.212463,399.976990 626.519897,405.000153 
	C628.774170,409.907593 628.239746,414.811737 624.961304,419.139435 
	C621.595276,423.582703 616.559753,424.246246 611.475464,424.264954 
	C593.150513,424.332397 574.825195,424.295898 556.000000,424.299072 
z"/>
<path fill="#000000" opacity="1.000000" stroke="none" 
	d="
M620.958313,291.670593 
	C627.037903,295.755585 629.101562,301.223145 627.163269,307.282990 
	C625.289429,313.141449 620.472046,316.361237 613.206238,316.364441 
	C559.239380,316.388306 505.272552,316.377747 451.305695,316.377167 
	C447.474731,316.377106 443.640106,316.476685 439.813629,316.343872 
	C432.700562,316.097046 427.280365,311.093414 426.684692,304.390442 
	C426.053558,297.288788 430.454773,291.747833 437.975983,290.415680 
	C440.252167,290.012543 442.607727,289.919006 444.927002,289.917847 
	C500.059723,289.890015 555.192444,289.897675 610.325195,289.884247 
	C613.844177,289.883392 617.311401,290.090302 620.958313,291.670593 
z"/>
<path fill="#000000" opacity="1.000000" stroke="none" 
	d="
M397.640320,634.113098 
	C392.110443,653.438293 378.257172,663.043457 357.321442,662.382690 
	C341.576874,661.885803 327.120087,649.396545 324.146729,632.130249 
	C319.260406,603.755676 344.328857,582.699219 371.342407,590.083008 
	C390.919586,595.434204 401.456726,613.055603 397.640320,634.113098 
M351.692871,630.630981 
	C352.874084,632.709229 354.468994,634.403931 356.612976,635.463257 
	C360.956329,637.609375 365.144287,637.179138 368.594910,633.805237 
	C371.976624,630.498779 373.886658,626.572693 371.730316,621.656372 
	C369.176147,615.832825 363.417999,612.953491 357.977173,614.903381 
	C351.981567,617.052063 349.208405,623.351685 351.692871,630.630981 
z"/>
<path fill="#000000" opacity="1.000000" stroke="none" 
	d="
M325.651520,397.821838 
	C333.463562,376.718597 356.975586,368.198883 377.010559,376.924347 
	C391.997253,383.451141 400.083710,398.439178 398.306488,416.152435 
	C396.933838,429.833435 384.872589,442.785614 369.908386,446.319824 
	C345.973022,451.972839 320.509949,435.166626 323.684845,404.377045 
	C323.901855,402.272369 324.909058,400.249237 325.651520,397.821838 
M351.005035,414.304840 
	C354.848450,421.548981 360.924896,423.782318 366.956268,420.167511 
	C372.637085,416.762817 374.287415,410.067383 370.783661,404.639954 
	C368.188049,400.619293 362.768646,398.503143 358.634857,399.896088 
	C352.686066,401.900635 349.949280,406.623077 351.005035,414.304840 
z"/>
<path fill="#000000" opacity="1.000000" stroke="none" 
	d="
M388.383301,492.636292 
	C399.446198,505.325867 401.794556,519.292542 394.864777,534.137512 
	C388.030121,548.778748 375.441711,555.263916 359.723022,555.219910 
	C341.106903,555.167786 324.664062,539.079956 323.536407,521.688660 
	C322.030396,498.462585 339.736908,482.592865 357.244965,481.496948 
	C369.231781,480.746643 379.588745,483.780487 388.383301,492.636292 
M350.722839,515.445435 
	C350.603363,516.760437 350.319885,518.084717 350.394104,519.388672 
	C350.653442,523.947021 354.395996,528.499939 358.821686,529.391174 
	C363.470978,530.327332 367.400146,528.754761 370.226776,524.982971 
	C373.418915,520.723511 373.364380,516.109314 370.379333,512.060181 
	C365.083221,504.876160 355.964600,506.146576 350.722839,515.445435 
z"/>
<path fill="#000000" opacity="1.000000" stroke="none" 
	d="
M370.764313,338.259033 
	C354.838898,342.104492 339.092712,336.426758 330.183746,323.875031 
	C321.426086,311.536469 321.221100,294.960663 329.661255,281.629303 
	C337.726410,268.890289 355.937897,262.508087 371.556427,266.947205 
	C387.387360,271.446686 397.742340,285.544800 398.523132,301.392242 
	C399.212738,315.388000 389.653687,332.873322 370.764313,338.259033 
M353.367523,310.104095 
	C358.838318,314.761658 364.975708,314.926788 369.300049,310.532837 
	C373.555206,306.209167 373.691895,299.755646 369.623505,295.259613 
	C365.462891,290.661652 359.457092,290.220551 354.476807,294.147156 
	C349.582916,298.005646 348.992004,303.667511 353.367523,310.104095 
z"/>
<path fill="#000000" opacity="1.000000" stroke="none" 
	d="
M468.999878,531.389771 
	C459.508545,531.373291 450.510315,531.572937 441.527679,531.285278 
	C430.226379,530.923401 424.045532,522.233826 427.776581,512.402527 
	C429.830933,506.989166 434.272949,504.783936 439.542999,504.744263 
	C463.019196,504.567505 486.497803,504.563751 509.974518,504.690674 
	C517.539246,504.731598 523.530640,511.119507 523.214783,518.155212 
	C522.876892,525.683350 516.584717,531.410095 508.461823,531.430298 
	C495.474609,531.462646 482.487213,531.407593 468.999878,531.389771 
z"/>
<path fill="#000000" opacity="1.000000" stroke="none" 
	d="
M439.337280,612.658997 
	C460.460907,612.651489 481.123535,612.639832 501.786194,612.651978 
	C510.499664,612.657104 515.582397,616.802490 516.349609,624.459839 
	C517.075562,631.705566 512.375977,637.299133 504.188568,638.843018 
	C502.725403,639.118896 501.213898,639.256409 499.724518,639.257874 
	C480.894928,639.276367 462.064941,639.317444 443.235870,639.211121 
	C438.003387,639.181641 432.920410,638.414856 429.395477,633.741211 
	C423.039795,625.314270 428.003845,614.225037 439.337280,612.658997 
z"/>
</svg>